HIERARCHY
ROOT ui
{
	 OFFSET 0 0 0
	 CHANNELS 3 XPosition YPosition Z Position
	 EndSite
	 {
	 OFFSET 0 -1 0
	 }
}
ROOT li
{
	 OFFSET 0 0 0
	 CHANNELS 3 XPosition YPosition Z Position
	 EndSite
	 {
	 OFFSET 0 -1 0
	 }
}
ROOT ul
{
	 OFFSET 0 0 0
	 CHANNELS 3 XPosition YPosition Z Position
	 EndSite
	 {
	 OFFSET 0 -1 0
	 }
}
ROOT ll
{
	 OFFSET 0 0 0
	 CHANNELS 3 XPosition YPosition Z Position
	 EndSite
	 {
	 OFFSET 0 -1 0
	 }
}
ROOT tt
{
	 OFFSET 0 0 0
	 CHANNELS 3 XPosition YPosition Z Position
	 EndSite
	 {
	 OFFSET 0 -1 0
	 }
}
ROOT tb
{
	 OFFSET 0 0 0
	 CHANNELS 3 XPosition YPosition Z Position
	 EndSite
	 {
	 OFFSET 0 -1 0
	 }
}
ROOT td
{
	 OFFSET 0 0 0
	 CHANNELS 3 XPosition YPosition Z Position
	 EndSite
	 {
	 OFFSET 0 -1 0
	 }
}
ROOT v
{
	 OFFSET 0 0 0
	 CHANNELS 3 XPosition YPosition Z Position
	 EndSite
	 {
	 OFFSET 0 -1 0
	 }
}
ROOT bn
{
	 OFFSET 0 0 0
	 CHANNELS 3 XPosition YPosition Z Position
	 EndSite
	 {
	 OFFSET 0 -1 0
	 }
}
MOTION
Frames: 10
Frame Time: 0.002
-8.588200062513352E-5	0.0010139009952545167	0		0.5140385131835937	-2.574766845703125	0		-1.0300784912109375	0.00817742919921875	0		-0.72721484375	-2.664911376953125	0		1.1317919921875	-0.8765227661132813	0		2.986219482421875	-0.3071752014160156	0		4.5815048828125	-0.13854861450195313	0		5.68088818359375	0.19742909240722656	0		-0.013323963165283203	6.007673828125	0		
-0.022469209671020507	-0.0027546229362487794	0		0.539621337890625	-2.58015234375	0		-1.036347900390625	0.013210451126098633	0		-0.7166697998046875	-2.6730966796875	0		1.108466796875	-0.8752864379882812	0		2.9648212890625	-0.311976318359375	0		4.57709326171875	-0.14457765197753905	0		5.67156884765625	0.19845608520507813	0		-0.013617921829223632	6.00762353515625	0		
-7.582539916038513E-4	9.245579838752747E-4	0		0.511305908203125	-2.57683740234375	0		-1.030750732421875	0.008102014541625976	0		-0.7190519409179688	-2.675105224609375	0		1.1280567626953124	-0.8805886840820313	0		2.970390625	-0.319112060546875	0		4.58083056640625	-0.13869992065429687	0		5.6710146484375	0.18137936401367188	0		-0.013915104866027832	6.00758447265625	0		
-0.0010996110439300537	8.961910009384155E-4	0		0.5498283081054688	-2.58636767578125	0		-1.0700760498046875	0.009579910278320312	0		-0.750306884765625	-2.666732421875	0		1.08477685546875	-0.8750748901367188	0		2.987045654296875	-0.3193786010742187	0		4.58538525390625	-0.14682339477539064	0		5.67067431640625	0.1813116760253906	0		-0.014214820861816406	6.00755615234375	0		
0.006545495986938476	-2.238370031118393E-4	0		0.5255606689453125	-2.579082275390625	0		-1.0172808837890626	0.019889936447143555	0		-0.7116698608398437	-2.667244384765625	0		1.133450927734375	-0.8737277221679688	0		2.967857177734375	-0.30717446899414064	0		4.58322216796875	-0.13284812927246092	0		5.67542333984375	0.18819039916992186	0		0.001624632954597473	6.0183330078125	0		
-0.0017795310020446778	8.713819980621338E-4	0		0.5402291870117187	-2.577285400390625	0		-1.0317718505859375	0.00806999397277832	0		-0.7619197387695312	-2.658606689453125	0		1.1070831298828125	-0.8754091796875	0		2.986361328125	-0.319444091796875	0		4.5828828125	-0.13288612365722657	0		5.67508642578125	0.18814505004882812	0		-0.014813009262084962	6.00753173828125	0		
0.0019256099462509155	0.0038228230476379395	0		0.53987939453125	-2.577285888671875	0		-0.9990433959960937	0.01265620517730713	0		-0.69036572265625	-2.666521240234375	0		1.129729736328125	-0.876708251953125	0		2.989090087890625	-0.3144994812011719	0		4.57947216796875	-0.1388741149902344	0		5.684779296875	0.1899826202392578	0		-0.015106805801391602	6.00753466796875	0		
0.0025104429721832275	-0.0031770100593566893	0		0.5374995727539063	-2.5802509765625	0		-1.0873358154296875	0.015803492546081543	0		-0.7557666015625	-2.67067041015625	0		1.10641357421875	-0.8754080200195312	0		2.959726806640625	-0.31713363647460935	0		4.5750693359375	-0.14483871459960937	0		5.65957275390625	0.19927919006347655	0		-0.01638140678405762	6.00856005859375	0		
0.0052327880859375	-1.9472399353981018E-4	0		0.5211309204101563	-2.583027587890625	0		-1.0717298583984376	0.009626263618469239	0		-0.7150762939453125	-2.669171142578125	0		1.109130615234375	-0.872432373046875	0		2.962472900390625	-0.31216934204101565	0		4.5837265625	-0.1469605712890625	0		5.6690263671875	0.1811392822265625	0		-0.014686917304992676	6.0065556640625	0		
0.004927363872528076	-1.6588899493217467E-4	0		0.5259002075195313	-2.576066650390625	0		-1.05889501953125	0.020493444442749024	0		-0.7462916870117188	-2.66074072265625	0		1.1118585205078124	-0.8694486083984375	0		2.997111328125	-0.31660641479492185	0		4.58040771484375	-0.14791928100585938	0		5.67791357421875	0.1960189971923828	0		0.0011690280437469482	6.01637841796875	0		
